{
	"asset":{
		"generator":"Khronos glTF Blender I/O v5.1.20",
		"version":"2.0"
	},
	"scene":0,
	"scenes":[
		{
			"name":"Scene",
			"nodes":[
				0,
				1,
				2,
				3,
				4,
				5
			]
		}
	],
	"nodes":[
		{
			"mesh":0,
			"name":"Cube",
			"translation":[
				0,
				0,
				2.5548863410949707
			]
		},
		{
			"name":"Camera_Test",
			"rotation":[
				0.483536034822464,
				0.33687159419059753,
				-0.20870360732078552,
				0.7804827094078064
			],
			"translation":[
				7.358891487121582,
				4.958309173583984,
				6.925790786743164
			]
		},
		{
			"name":"PointLight_Test"
		},
		{
			"mesh":1,
			"name":"Goblin",
			"rotation":[
				1,
				0,
				0,
				0
			],
			"scale":[
				0.46403807401657104,
				0.46403807401657104,
				0.46403807401657104
			],
			"translation":[
				0.9906570911407471,
				0.5014572143554688,
				-1.380139708518982
			]
		},
		{
			"mesh":1,
			"name":"Goblin.001",
			"rotation":[
				1,
				0,
				0,
				0
			],
			"scale":[
				0.46403807401657104,
				0.46403807401657104,
				0.46403807401657104
			],
			"translation":[
				2.2074880599975586,
				0.47199755907058716,
				-0.27989518642425537
			]
		},
		{
			"mesh":1,
			"name":"Goblin.002",
			"rotation":[
				1,
				0,
				0,
				0
			],
			"scale":[
				0.46403807401657104,
				0.46403807401657104,
				0.46403807401657104
			],
			"translation":[
				-0.6191188097000122,
				0.3365822732448578,
				-2.758880138397217
			]
		}
	],
	"materials":[
		{
			"doubleSided":true,
			"name":"Material",
			"pbrMetallicRoughness":{
				"baseColorTexture":{
					"index":0
				},
				"metallicFactor":0,
				"roughnessFactor":0.5
			}
		},
		{
			"doubleSided":true,
			"name":"goblinmaterial",
			"normalTexture":{
				"index":1,
				"scale":7.799999713897705
			},
			"pbrMetallicRoughness":{
				"baseColorTexture":{
					"index":2
				},
				"metallicFactor":0,
				"roughnessFactor":0.5527864098548889
			}
		}
	],
	"meshes":[
		{
			"name":"Cube",
			"primitives":[
				{
					"attributes":{
						"POSITION":0,
						"NORMAL":1,
						"TEXCOORD_0":2
					},
					"indices":3,
					"material":0
				}
			]
		},
		{
			"name":"Goblin",
			"primitives":[
				{
					"attributes":{
						"POSITION":4,
						"NORMAL":5,
						"TEXCOORD_0":6
					},
					"indices":7,
					"material":1
				},
				{
					"attributes":{
						"POSITION":8,
						"NORMAL":9,
						"TEXCOORD_0":10
					},
					"indices":11,
					"material":0
				}
			]
		}
	],
	"textures":[
		{
			"sampler":0,
			"source":0
		},
		{
			"sampler":0,
			"source":1
		},
		{
			"sampler":0,
			"source":2
		}
	],
	"images":[
		{
			"mimeType":"image/png",
			"name":"chunli",
			"uri":"tex/chunli.png"
		},
		{
			"mimeType":"image/png",
			"name":"goblinNormal",
			"uri":"tex/goblinNormal.png"
		},
		{
			"mimeType":"image/png",
			"name":"goblinAlbedo",
			"uri":"tex/goblinAlbedo.png"
		}
	],
	"accessors":[
		{
			"bufferView":0,
			"componentType":5126,
			"count":24,
			"max":[
				1,
				1,
				1
			],
			"min":[
				-1,
				-1,
				-1
			],
			"type":"VEC3"
		},
		{
			"bufferView":1,
			"componentType":5126,
			"count":24,
			"type":"VEC3"
		},
		{
			"bufferView":2,
			"componentType":5126,
			"count":24,
			"type":"VEC2"
		},
		{
			"bufferView":3,
			"componentType":5123,
			"count":36,
			"type":"SCALAR"
		},
		{
			"bufferView":4,
			"componentType":5126,
			"count":6609,
			"max":[
				2.053610324859619,
				0.05650591850280762,
				0.42612922191619873
			],
			"min":[
				-2.0518808364868164,
				-4.486537933349609,
				-0.7904424667358398
			],
			"type":"VEC3"
		},
		{
			"bufferView":5,
			"componentType":5126,
			"count":6609,
			"type":"VEC3"
		},
		{
			"bufferView":6,
			"componentType":5126,
			"count":6609,
			"type":"VEC2"
		},
		{
			"bufferView":7,
			"componentType":5123,
			"count":29640,
			"type":"SCALAR"
		},
		{
			"bufferView":8,
			"componentType":5126,
			"count":30,
			"max":[
				0.22293365001678467,
				-1.9171332120895386,
				-0.37578561902046204
			],
			"min":[
				-0.19537615776062012,
				-2.337609052658081,
				-0.4647720456123352
			],
			"type":"VEC3"
		},
		{
			"bufferView":9,
			"componentType":5126,
			"count":30,
			"type":"VEC3"
		},
		{
			"bufferView":10,
			"componentType":5126,
			"count":30,
			"type":"VEC2"
		},
		{
			"bufferView":11,
			"componentType":5123,
			"count":120,
			"type":"SCALAR"
		}
	],
	"bufferViews":[
		{
			"buffer":0,
			"byteLength":288,
			"byteOffset":0,
			"target":34962
		},
		{
			"buffer":0,
			"byteLength":288,
			"byteOffset":288,
			"target":34962
		},
		{
			"buffer":0,
			"byteLength":192,
			"byteOffset":576,
			"target":34962
		},
		{
			"buffer":0,
			"byteLength":72,
			"byteOffset":768,
			"target":34963
		},
		{
			"buffer":0,
			"byteLength":79308,
			"byteOffset":840,
			"target":34962
		},
		{
			"buffer":0,
			"byteLength":79308,
			"byteOffset":80148,
			"target":34962
		},
		{
			"buffer":0,
			"byteLength":52872,
			"byteOffset":159456,
			"target":34962
		},
		{
			"buffer":0,
			"byteLength":59280,
			"byteOffset":212328,
			"target":34963
		},
		{
			"buffer":0,
			"byteLength":360,
			"byteOffset":271608,
			"target":34962
		},
		{
			"buffer":0,
			"byteLength":360,
			"byteOffset":271968,
			"target":34962
		},
		{
			"buffer":0,
			"byteLength":240,
			"byteOffset":272328,
			"target":34962
		},
		{
			"buffer":0,
			"byteLength":240,
			"byteOffset":272568,
			"target":34963
		}
	],
	"samplers":[
		{
			"magFilter":9729,
			"minFilter":9987
		}
	],
	"buffers":[
		{
			"byteLength":272808,
			"uri":"TestScene.bin"
		}
	]
}
